<svg height="512" viewBox="0 0 256 256" width="512" xmlns="http://www.w3.org/2000/svg"><path d="m136.126 204.377a13.141 13.141 0 0 1 -3.133-.374l-59.6-14.715v1.125a4.647 4.647 0 0 1 -4.642 4.642h-25.374a2.5 2.5 0 0 1 0-5h25.011v-3.955a2.5 2.5 0 0 1 3.1-2.427l62.7 15.48a8.376 8.376 0 0 0 5.3-.459l64.631-28.694a2.5 2.5 0 0 1 2.028 4.57l-64.632 28.687a13.419 13.419 0 0 1 -5.389 1.12z" fill="#ebe7f2"/><g fill="#846f75"><path d="m206.226 107.306a2.5 2.5 0 1 0 -.684 4.953 14.5 14.5 0 0 1 12.458 14.319 14.4 14.4 0 0 1 -14.817 14.456h-54.277c-11.015 0-20.2-8.717-20.475-19.431a19.858 19.858 0 0 1 17.6-20.349 2.5 2.5 0 0 0 1.979-1.435 29.061 29.061 0 0 1 46.59-8.719 2.5 2.5 0 0 0 3.477-3.594 34.06 34.06 0 0 0 -54.008 8.987 24.826 24.826 0 0 0 -20.64 25.242c.344 13.4 11.771 24.3 25.473 24.3h54.277a19.459 19.459 0 0 0 3.043-38.728z"/><path d="m118.5 119.521a2.5 2.5 0 0 0 0-5h-64.327a18.173 18.173 0 0 1 0-36.346 2.5 2.5 0 0 0 2.5-2.5 29.087 29.087 0 0 1 29.055-29.054 28.777 28.777 0 0 1 17.717 6.025 2.5 2.5 0 0 0 3.341-.261 14.458 14.458 0 0 1 24.746 7.5 2.5 2.5 0 0 0 2.245 2.072 26.271 26.271 0 0 1 20.793 13.656 2.5 2.5 0 0 0 4.392-2.391 31.264 31.264 0 0 0 -22.908-16.029 19.466 19.466 0 0 0 -31.294-9.763 33.716 33.716 0 0 0 -19.032-5.809 34.1 34.1 0 0 0 -33.973 31.679 23.174 23.174 0 0 0 2.418 46.221z"/><path d="m120.373 94.438a2.5 2.5 0 0 0 2.5-2.5v-1.494a10.956 10.956 0 0 1 10.943-10.944h1.494a2.5 2.5 0 0 0 0-5h-1.494a10.955 10.955 0 0 1 -10.943-10.943v-1.494a2.5 2.5 0 0 0 -5 0v1.494a10.956 10.956 0 0 1 -10.944 10.943h-1.493a2.5 2.5 0 0 0 0 5h1.493a10.957 10.957 0 0 1 10.944 10.944v1.494a2.5 2.5 0 0 0 2.5 2.5zm-4.909-17.438a16.031 16.031 0 0 0 4.909-4.908 16.028 16.028 0 0 0 4.908 4.908 16.042 16.042 0 0 0 -4.908 4.909 16.045 16.045 0 0 0 -4.909-4.909z"/><path d="m195.6 155.841-44.771 13.213a17.216 17.216 0 0 0 -.306-4.366l-.039-.208a13.321 13.321 0 0 0 -10.084-10.63l-35.542-8.883a13.164 13.164 0 0 0 -8.158.582l-23.312 9.451v-6.284a4.648 4.648 0 0 0 -4.642-4.643h-25.369a4.648 4.648 0 0 0 -4.643 4.643v51.7a4.648 4.648 0 0 0 4.643 4.642h25.369a4.647 4.647 0 0 0 4.642-4.642v-1.125l59.605 14.709a13.141 13.141 0 0 0 3.133.374 13.419 13.419 0 0 0 5.389-1.116l64.632-28.687a15.338 15.338 0 0 0 -10.55-28.733zm8.519 24.159-64.629 28.689a8.383 8.383 0 0 1 -5.3.459l-62.7-15.48a2.5 2.5 0 0 0 -3.1 2.427v3.96h-24.656v-50.986h24.654v37.9a2.5 2.5 0 0 0 5 0v-26.58l25.193-10.21a8.21 8.21 0 0 1 5.074-.363l35.538 8.883a8.333 8.333 0 0 1 6.357 6.592l.059.325c.2 1.044.8 4.22-.939 6.319-1.4 1.687-4.238 2.579-8.215 2.579a48.6 48.6 0 0 1 -8.979-1.289c-1.286-.264-2.5-.514-3.539-.678a2.5 2.5 0 0 0 -.778 4.94c.925.145 2.083.384 3.31.635a52.81 52.81 0 0 0 9.986 1.392c5.594 0 9.653-1.476 12.066-4.389.066-.081.2-.245.2-.245l48.294-14.245a10.337 10.337 0 0 1 7.104 19.365z"/><path d="m56.058 154.132a7.121 7.121 0 1 0 7.12 7.12 7.127 7.127 0 0 0 -7.12-7.12zm0 9.241a2.121 2.121 0 1 1 2.12-2.121 2.123 2.123 0 0 1 -2.12 2.121z"/></g><path d="m173 129.721h-.038a2.5 2.5 0 0 1 -1.782-.786l-13.234-14.06a2.5 2.5 0 1 1 3.64-3.427l11.468 12.183 34.5-34.494a2.5 2.5 0 1 1 3.535 3.535l-36.316 36.317a2.5 2.5 0 0 1 -1.773.732z" fill="#ed9abc"/></svg>